<!DOCTYPE svg PUBLIC '-//W3C//DTD SVG 1.1//EN' 'http://www.w3.org/Graphics/SVG/1.1/DTD/svg11.dtd'>
                <svg xmlns="http://www.w3.org/2000/svg" version="1.1" viewBox="0 0 180 115" preserveAspectRatio="none" xmlns:xlink="http://www.w3.org/1999/xlink">
                    <a href="https://www.bloomberg.com/quote/CL1:COM" target="_top"><rect height="115" width="180" fill="transparent"></rect><defs><mask id="up-mask"><rect id="clipper" x="90" y="0" width="90" height="58.458333333333485" stroke-width="0" fill="#FFFFFF"></rect></mask><mask id="down-mask"><rect id="clipper" x="90" y="58.458333333333485" width="90" height="115" stroke-width="0" fill="#FFFFFF"></rect></mask><path id="day-0" stroke-linejoin="round" stroke="currentColor" stroke-width="4" fill="none" d="M0 11.499999999999115 L0 11.499999999999115 L0.32727272727272727 16.291666666666888 L0.6545454545454545 18.20833333333318 L0.9818181818181818 18.20833333333318 L1.309090909090909 20.12499999999947 L1.6363636363636362 20.12499999999947 L1.9636363636363636 19.166666666665645 L2.290909090909091 21.0833333333333 L2.618181818181818 19.166666666665645 L2.9454545454545453 17.249999999999353 L3.2727272727272725 14.374999999999234 L3.6 17.249999999999353 L3.9272727272727272 18.20833333333318 L4.254545454545455 19.166666666665645 L4.581818181818182 19.166666666665645 L4.909090909090909 20.12499999999947 L5.236363636363636 24.916666666665883 L5.5636363636363635 22.99999999999959 L5.890909090909091 22.041666666665765 L6.218181818181818 23.958333333333417 L6.545454545454545 22.99999999999959 L6.872727272727273 18.20833333333318 L7.2 19.166666666665645 L7.527272727272727 16.291666666666888 L7.8545454545454545 13.416666666666769 L8.181818181818182 9.583333333332822 L8.50909090909091 11.499999999999115 L8.836363636363636 12.458333333332941 L9.163636363636364 14.374999999999234 L9.49090909090909 17.249999999999353 L9.818181818181818 16.291666666666888 L10.145454545454545 14.374999999999234 L10.472727272727273 13.416666666666769 L10.8 11.499999999999115 L11.127272727272727 12.458333333332941 L11.454545454545455 13.416666666666769 L11.781818181818181 13.416666666666769 L12.10909090909091 16.291666666666888 L12.436363636363636 15.333333333333062 L12.763636363636364 17.249999999999353 L13.09090909090909 15.333333333333062 L13.418181818181818 12.458333333332941 L13.745454545454546 8.624999999998996 L14.072727272727272 4.791666666666411 L14.4 7.666666666666531 L14.727272727272727 7.666666666666531 L15.054545454545455 6.708333333332704 L15.381818181818181 12.458333333332941 L15.709090909090909 12.458333333332941 L16.036363636363635 10.54166666666665 L16.363636363636363 12.458333333332941 L16.69090909090909 13.416666666666769 L17.01818181818182 14.374999999999234 L17.345454545454544 14.374999999999234 L17.672727272727272 15.333333333333062 L18 14.374999999999234 L18.327272727272728 13.416666666666769 L18.654545454545456 14.374999999999234 L18.98181818181818 19.166666666665645 L19.30909090909091 20.12499999999947 L19.636363636363637 23.958333333333417 L19.963636363636365 26.833333333333538 L20.29090909090909 26.833333333333538 L20.618181818181817 25.87499999999971 L20.945454545454545 25.87499999999971 L21.272727272727273 23.958333333333417 L21.6 21.0833333333333 L21.927272727272726 22.041666666665765 L22.254545454545454 22.041666666665765 L22.581818181818182 22.041666666665765 L22.90909090909091 23.958333333333417 L23.236363636363635 23.958333333333417 L23.563636363636363 22.99999999999959 L23.89090909090909 23.958333333333417 L24.21818181818182 23.958333333333417 L24.545454545454547 22.99999999999959 L24.87272727272727 22.041666666665765 L25.2 22.99999999999959 L25.527272727272727 20.12499999999947 L25.854545454545455 25.87499999999971 L26.18181818181818 25.87499999999971 L26.509090909090908 26.833333333333538 L26.836363636363636 25.87499999999971 L27.163636363636364 29.708333333332295 L27.490909090909092 34.50000000000007 L27.818181818181817 30.666666666666124 L28.145454545454545 29.708333333332295 L28.472727272727273 35.45833333333253 L28.8 31.62499999999995 L29.12727272727273 38.333333333332654 L29.454545454545453 32.58333333333241 L29.78181818181818 33.54166666666624 L30.10909090909091 35.45833333333253 L30.436363636363637 30.666666666666124 L30.763636363636362 29.708333333332295 L31.09090909090909 27.791666666666003 L31.418181818181818 24.916666666665883 L31.745454545454546 25.87499999999971 L32.07272727272727 25.87499999999971 L32.4 29.708333333332295 L32.72727272727273 28.74999999999983 L33.054545454545455 26.833333333333538 L33.38181818181818 30.666666666666124 L33.70909090909091 28.74999999999983 L34.03636363636364 30.666666666666124 L34.36363636363637 30.666666666666124 L34.69090909090909 27.791666666666003 L35.018181818181816 22.99999999999959 L35.345454545454544 20.12499999999947 L35.67272727272727 16.291666666666888 L36 22.041666666665765 L36.32727272727273 25.87499999999971 L36.654545454545456 49.83333333333313 L36.981818181818184 52.70833333333325 L37.30909090909091 51.74999999999942 L37.63636363636363 48.874999999999304 L37.96363636363636 47.916666666666835 L38.29090909090909 48.874999999999304 L38.61818181818182 45.99999999999918 L38.945454545454545 44.08333333333289 L39.27272727272727 35.45833333333253 L39.6 35.45833333333253 L39.92727272727273 36.41666666666636 L40.25454545454546 34.50000000000007 L40.58181818181818 40.250000000000306 L40.90909090909091 37.375000000000185 L41.236363636363635 40.250000000000306 L41.56363636363636 37.375000000000185 L41.89090909090909 41.208333333332774 L42.21818181818182 40.250000000000306 L42.54545454545455 38.333333333332654 L42.872727272727275 38.333333333332654 L43.2 38.333333333332654 L43.527272727272724 31.62499999999995 L43.85454545454545 34.50000000000007 L44.18181818181818 34.50000000000007 L44.50909090909091 33.54166666666624 L44.836363636363636 34.50000000000007 L45.163636363636364 37.375000000000185 L45.49090909090909 40.250000000000306 L45.81818181818182 38.333333333332654 L46.14545454545455 41.208333333332774 L46.47272727272727 40.250000000000306 L46.8 40.250000000000306 L47.127272727272725 34.50000000000007 L47.45454545454545 36.41666666666636 L47.78181818181818 33.54166666666624 L48.10909090909091 31.62499999999995 L48.43636363636364 33.54166666666624 L48.763636363636365 33.54166666666624 L49.09090909090909 27.791666666666003 L49.418181818181814 28.74999999999983 L49.74545454545454 22.041666666665765 L50.07272727272727 22.99999999999959 L50.4 20.12499999999947 L50.72727272727273 18.20833333333318 L51.054545454545455 17.249999999999353 L51.38181818181818 11.499999999999115 L51.70909090909091 20.12499999999947 L52.03636363636364 15.333333333333062 L52.36363636363636 20.12499999999947 L52.69090909090909 14.374999999999234 L53.018181818181816 15.333333333333062 L53.345454545454544 14.374999999999234 L53.67272727272727 11.499999999999115 L54 17.249999999999353 L54.32727272727273 22.99999999999959 L54.654545454545456 14.374999999999234 L54.981818181818184 11.499999999999115 L55.30909090909091 21.0833333333333 L55.63636363636363 18.20833333333318 L55.96363636363636 20.12499999999947 L56.29090909090909 24.916666666665883 L56.61818181818182 21.0833333333333 L56.945454545454545 27.791666666666003 L57.27272727272727 22.99999999999959 L57.6 32.58333333333241 L57.92727272727273 28.74999999999983 L58.25454545454546 28.74999999999983 L58.58181818181818 23.958333333333417 L58.90909090909091 22.99999999999959 L59.236363636363635 22.99999999999959 L59.56363636363636 29.708333333332295 L59.89090909090909 26.833333333333538 L60.21818181818182 32.58333333333241 L60.54545454545455 39.29166666666648 L60.872727272727275 35.45833333333253 L61.2 45.99999999999918 L61.527272727272724 49.83333333333313 L61.85454545454545 38.333333333332654 L62.18181818181818 36.41666666666636 L62.50909090909091 36.41666666666636 L62.836363636363636 43.12499999999906 L63.163636363636364 43.12499999999906 L63.49090909090909 54.62499999999954 L63.81818181818182 50.791666666666956 L64.14545454545454 54.62499999999954 L64.47272727272727 30.666666666666124 L64.8 14.374999999999234 L65.12727272727273 0 L65.45454545454545 54.62499999999954 L65.78181818181818 47.916666666666835 L66.10909090909091 41.208333333332774 L66.43636363636364 26.833333333333538 L66.76363636363637 34.50000000000007 L67.0909090909091 29.708333333332295 L67.41818181818182 34.50000000000007 L67.74545454545455 41.208333333332774 L68.07272727272728 39.29166666666648 L68.4 25.87499999999971 L68.72727272727273 42.1666666666666 L69.05454545454545 72.83333333333272 L69.38181818181818 87.20833333333331 L69.7090909090909 101.58333333333323 L70.03636363636363 113.08333333333302 L70.36363636363636 106.37499999999964 L70.69090909090909 115 L71.01818181818182 108.29166666666661 L71.34545454545454 109.24999999999976 L71.67272727272727 96.79166666666683 L72 82.41666666666691 L72.32727272727273 88.16666666666714 L72.65454545454546 83.37499999999937 L72.98181818181818 84.3333333333332 L73.30909090909091 85.29166666666703 L73.63636363636364 82.41666666666691 L73.96363636363637 91.99999999999973 L74.2909090909091 92.95833333333356 L74.61818181818182 92.95833333333356 L74.94545454545454 89.1249999999996 L75.27272727272727 91.04166666666589 L75.6 95.83333333333299 L75.92727272727272 87.20833333333331 L76.25454545454545 84.3333333333332 L76.58181818181818 82.41666666666691 L76.9090909090909 72.83333333333272 L77.23636363636363 70.91666666666643 L77.56363636363636 62.291666666666075 L77.89090909090909 64.20833333333373 L78.21818181818182 61.3333333333336 L78.54545454545455 58.458333333333485 L78.87272727272727 55.583333333333364 L79.2 54.62499999999954 L79.52727272727273 60.37499999999977 L79.85454545454546 58.458333333333485 L80.18181818181819 52.70833333333325 L80.50909090909092 36.41666666666636 L80.83636363636363 37.375000000000185 L81.16363636363636 33.54166666666624 L81.49090909090908 36.41666666666636 L81.81818181818181 32.58333333333241 L82.14545454545454 30.666666666666124 L82.47272727272727 35.45833333333253 L82.8 45.041666666666714 L83.12727272727273 44.08333333333289 L83.45454545454545 44.08333333333289 L83.78181818181818 36.41666666666636 L84.10909090909091 36.41666666666636 L84.43636363636364 37.375000000000185 L84.76363636363637 26.833333333333538 L85.0909090909091 28.74999999999983 L85.41818181818182 35.45833333333253 L85.74545454545455 33.54166666666624 L86.07272727272728 31.62499999999995 L86.4 34.50000000000007 L86.72727272727273 32.58333333333241 L87.05454545454545 35.45833333333253 L87.38181818181818 32.58333333333241 L87.7090909090909 30.666666666666124 L88.03636363636363 30.666666666666124 L88.36363636363636 31.62499999999995 L88.69090909090909 30.666666666666124 L89.01818181818182 34.50000000000007 L89.34545454545454 33.54166666666624 L89.67272727272727 31.62499999999995 L90 30.666666666666124"/><path id="day-1" stroke-linejoin="round" stroke="currentColor" stroke-width="4" fill="none" d="M90 31.62499999999995 L90 31.62499999999995 L90.32727272727273 34.50000000000007 L90.65454545454546 33.54166666666624 L90.98181818181818 29.708333333332295 L91.30909090909091 28.74999999999983 L91.63636363636364 28.74999999999983 L91.96363636363637 30.666666666666124 L92.2909090909091 31.62499999999995 L92.61818181818182 31.62499999999995 L92.94545454545454 23.958333333333417 L93.27272727272727 22.99999999999959 L93.6 25.87499999999971 L93.92727272727272 25.87499999999971 L94.25454545454545 25.87499999999971 L94.58181818181818 26.833333333333538 L94.9090909090909 26.833333333333538 L95.23636363636363 27.791666666666003 L95.56363636363636 30.666666666666124 L95.89090909090909 27.791666666666003 L96.21818181818182 27.791666666666003 L96.54545454545455 27.791666666666003 L96.87272727272727 28.74999999999983 L97.2 31.62499999999995 L97.52727272727273 30.666666666666124 L97.85454545454546 34.50000000000007 L98.18181818181819 36.41666666666636 L98.50909090909092 37.375000000000185 L98.83636363636364 35.45833333333253 L99.16363636363636 32.58333333333241 L99.49090909090908 34.50000000000007 L99.81818181818181 33.54166666666624 L100.14545454545454 33.54166666666624 L100.47272727272727 32.58333333333241 L100.8 32.58333333333241 L101.12727272727273 33.54166666666624 L101.45454545454545 37.375000000000185 L101.78181818181818 34.50000000000007 L102.10909090909091 34.50000000000007 L102.43636363636364 37.375000000000185 L102.76363636363637 38.333333333332654 L103.0909090909091 34.50000000000007 L103.41818181818182 30.666666666666124 L103.74545454545455 30.666666666666124 L104.07272727272728 32.58333333333241 L104.4 33.54166666666624 L104.72727272727272 36.41666666666636 L105.05454545454546 34.50000000000007 L105.38181818181818 33.54166666666624 L105.7090909090909 34.50000000000007 L106.03636363636363 36.41666666666636 L106.36363636363636 37.375000000000185 L106.69090909090909 34.50000000000007 L107.01818181818182 37.375000000000185 L107.34545454545454 42.1666666666666 L107.67272727272727 42.1666666666666 L108 41.208333333332774 L108.32727272727273 39.29166666666648 L108.65454545454546 39.29166666666648 L108.98181818181818 38.333333333332654 L109.30909090909091 38.333333333332654 L109.63636363636364 36.41666666666636 L109.96363636363637 38.333333333332654 L110.29090909090908 37.375000000000185 L110.61818181818182 39.29166666666648 L110.94545454545454 40.250000000000306 L111.27272727272728 39.29166666666648 L111.6 38.333333333332654 L111.92727272727272 38.333333333332654 L112.25454545454545 36.41666666666636 L112.58181818181818 35.45833333333253 L112.9090909090909 33.54166666666624 L113.23636363636363 30.666666666666124 L113.56363636363636 31.62499999999995 L113.89090909090909 29.708333333332295 L114.21818181818182 32.58333333333241 L114.54545454545455 30.666666666666124 L114.87272727272727 29.708333333332295 L115.2 28.74999999999983 L115.52727272727273 29.708333333332295 L115.85454545454546 33.54166666666624 L116.18181818181819 31.62499999999995 L116.5090909090909 30.666666666666124 L116.83636363636364 31.62499999999995 L117.16363636363636 33.54166666666624 L117.4909090909091 33.54166666666624 L117.81818181818181 35.45833333333253 L118.14545454545454 36.41666666666636 L118.47272727272727 35.45833333333253 L118.8 34.50000000000007 L119.12727272727273 34.50000000000007 L119.45454545454545 30.666666666666124 L119.78181818181818 30.666666666666124"/></defs><use xlink:href="#day-0" style="color: #CCCCCC" transform="translate(0, 0)"/><use xlink:href="#day-1" style="color: #FF433D" mask="url(#down-mask)" transform="translate(0, 0)"/><use xlink:href="#day-1" style="color: #1DCC92" mask="url(#up-mask)" transform="translate(0, 0)"/></a>
                </svg>