<!DOCTYPE svg PUBLIC '-//W3C//DTD SVG 1.1//EN' 'http://www.w3.org/Graphics/SVG/1.1/DTD/svg11.dtd'>
                <svg xmlns="http://www.w3.org/2000/svg" version="1.1" viewBox="0 0 180 115" preserveAspectRatio="none" xmlns:xlink="http://www.w3.org/1999/xlink">
                    <a href="https://www.bloomberg.com/quote/DM1:IND" target="_top"><rect height="115" width="180" fill="transparent"></rect><defs><mask id="up-mask"><rect id="clipper" x="90" y="0" width="90" height="69.4408945686901" stroke-width="0" fill="#FFFFFF"></rect></mask><mask id="down-mask"><rect id="clipper" x="90" y="69.4408945686901" width="90" height="115" stroke-width="0" fill="#FFFFFF"></rect></mask><path id="day-0" stroke-linejoin="round" stroke="currentColor" stroke-width="4" fill="none" d="M0 78.6261980830671 L0 78.6261980830671 L0.32967032967032966 80.09584664536742 L0.6593406593406593 85.60702875399362 L0.989010989010989 82.66773162939297 L1.3186813186813187 90.01597444089457 L1.6483516483516483 80.83067092651757 L1.978021978021978 71.64536741214057 L2.3076923076923075 74.21725239616613 L2.6373626373626373 67.23642172523962 L2.967032967032967 70.17571884984027 L3.2967032967032965 65.7667731629393 L3.6263736263736264 64.29712460063898 L3.956043956043956 73.48242811501598 L4.285714285714286 77.15654952076677 L4.615384615384615 75.68690095846645 L4.945054945054945 70.17571884984027 L5.274725274725275 78.6261980830671 L5.604395604395604 81.93290734824282 L5.934065934065934 73.48242811501598 L6.263736263736264 78.99361022364218 L6.593406593406593 74.9520766773163 L6.923076923076923 64.66453674121405 L7.252747252747253 63.19488817891374 L7.582417582417582 64.29712460063898 L7.912087912087912 66.86900958466454 L8.241758241758241 46.29392971246006 L8.571428571428571 45.5591054313099 L8.901098901098901 49.233226837060705 L9.23076923076923 50.33546325878594 L9.56043956043956 49.96805111821086 L9.89010989010989 51.0702875399361 L10.219780219780219 60.2555910543131 L10.54945054945055 56.581469648562305 L10.87912087912088 57.683706070287535 L11.208791208791208 60.99041533546326 L11.538461538461538 58.78594249201278 L11.868131868131869 58.78594249201278 L12.197802197802197 55.11182108626198 L12.527472527472527 56.94888178913738 L12.857142857142858 62.0926517571885 L13.186813186813186 70.91054313099042 L13.516483516483516 63.9297124600639 L13.846153846153847 60.99041533546326 L14.175824175824175 51.0702875399361 L14.505494505494505 47.39616613418531 L14.835164835164836 38.57827476038339 L15.164835164835164 38.94568690095847 L15.494505494505495 42.98722044728435 L15.824175824175825 52.9073482428115 L16.153846153846153 45.926517571884986 L16.483516483516482 43.35463258785943 L16.813186813186814 47.763578274760384 L17.142857142857142 56.21405750798722 L17.47252747252747 54.00958466453674 L17.802197802197803 54.74440894568691 L18.13186813186813 50.70287539936103 L18.46153846153846 49.60063897763578 L18.791208791208792 50.33546325878594 L19.12087912087912 56.581469648562305 L19.45054945054945 55.47923322683706 L19.78021978021978 56.21405750798722 L20.10989010989011 62.0926517571885 L20.439560439560438 64.66453674121405 L20.76923076923077 69.4408945686901 L21.0989010989011 69.80830670926518 L21.428571428571427 70.91054313099042 L21.75824175824176 66.50159744408946 L22.087912087912088 67.97124600638978 L22.417582417582416 66.13418530351439 L22.747252747252748 70.54313099041534 L23.076923076923077 71.27795527156549 L23.406593406593405 69.4408945686901 L23.736263736263737 65.03194888178913 L24.065934065934066 59.52076677316293 L24.395604395604394 59.52076677316293 L24.725274725274726 60.2555910543131 L25.054945054945055 59.15335463258786 L25.384615384615383 55.47923322683706 L25.714285714285715 53.64217252396166 L26.043956043956044 71.27795527156549 L26.373626373626372 74.58466453674122 L26.703296703296704 72.01277955271566 L27.032967032967033 57.683706070287535 L27.36263736263736 58.78594249201278 L27.692307692307693 66.13418530351439 L28.021978021978022 66.86900958466454 L28.35164835164835 66.13418530351439 L28.681318681318682 69.80830670926518 L29.01098901098901 76.78913738019169 L29.34065934065934 90.75079872204473 L29.67032967032967 88.17891373801916 L30 91.1182108626198 L30.32967032967033 96.629392971246 L30.65934065934066 85.9744408945687 L30.98901098901099 78.99361022364218 L31.318681318681318 70.17571884984027 L31.64835164835165 73.1150159744409 L31.978021978021978 65.39936102236422 L32.30769230769231 63.19488817891374 L32.637362637362635 66.13418530351439 L32.967032967032964 66.50159744408946 L33.2967032967033 70.17571884984027 L33.62637362637363 51.0702875399361 L33.956043956043956 60.2555910543131 L34.285714285714285 59.88817891373802 L34.61538461538461 55.84664536741214 L34.94505494505494 60.99041533546326 L35.27472527472528 61.357827476038345 L35.604395604395606 72.38019169329073 L35.934065934065934 54.376996805111816 L36.26373626373626 65.7667731629393 L36.59340659340659 64.66453674121405 L36.92307692307692 74.21725239616613 L37.252747252747255 82.30031948881789 L37.582417582417584 79.72843450479233 L37.91208791208791 86.70926517571885 L38.24175824175824 91.85303514376997 L38.57142857142857 86.34185303514377 L38.9010989010989 95.52715654952077 L39.23076923076923 102.1405750798722 L39.56043956043956 91.48562300319489 L39.89010989010989 97.36421725239617 L40.21978021978022 87.07667731629392 L40.54945054945055 81.93290734824282 L40.879120879120876 87.44408945686901 L41.20879120879121 82.66773162939297 L41.53846153846154 85.9744408945687 L41.86813186813187 95.89456869009584 L42.1978021978022 101.03833865814696 L42.527472527472526 103.61022364217253 L42.857142857142854 91.48562300319489 L43.18681318681318 106.54952076677317 L43.51648351648352 94.79233226837061 L43.84615384615385 93.3226837060703 L44.175824175824175 98.83386581469648 L44.505494505494504 102.1405750798722 L44.83516483516483 92.9552715654952 L45.16483516483516 90.01597444089457 L45.494505494505496 86.34185303514377 L45.824175824175825 95.15974440894568 L46.15384615384615 87.44408945686901 L46.48351648351648 86.70926517571885 L46.81318681318681 87.44408945686901 L47.14285714285714 89.6485623003195 L47.472527472527474 86.34185303514377 L47.8021978021978 85.60702875399362 L48.13186813186813 84.87220447284345 L48.46153846153846 83.76996805111821 L48.79120879120879 77.15654952076677 L49.12087912087912 75.68690095846645 L49.45054945054945 69.07348242811501 L49.78021978021978 73.84984025559106 L50.10989010989011 69.07348242811501 L50.43956043956044 65.7667731629393 L50.76923076923077 59.52076677316293 L51.098901098901095 58.05111821086262 L51.42857142857143 54.376996805111816 L51.75824175824176 55.11182108626198 L52.08791208791209 53.64217252396166 L52.417582417582416 52.17252396166134 L52.747252747252745 46.29392971246006 L53.07692307692307 41.884984025559106 L53.40659340659341 46.29392971246006 L53.73626373626374 46.29392971246006 L54.065934065934066 47.763578274760384 L54.395604395604394 55.47923322683706 L54.72527472527472 53.64217252396166 L55.05494505494505 49.233226837060705 L55.38461538461539 37.843450479233226 L55.714285714285715 37.843450479233226 L56.043956043956044 37.47603833865815 L56.37362637362637 37.108626198083066 L56.7032967032967 31.59744408945687 L57.03296703296703 34.16932907348242 L57.362637362637365 41.884984025559106 L57.69230769230769 45.5591054313099 L58.02197802197802 49.233226837060705 L58.35164835164835 52.17252396166134 L58.68131868131868 52.539936102236425 L59.01098901098901 62.460063897763575 L59.34065934065934 70.91054313099042 L59.67032967032967 59.52076677316293 L60 65.7667731629393 L60.32967032967033 58.05111821086262 L60.65934065934066 51.43769968051118 L60.989010989010985 53.64217252396166 L61.31868131868132 40.04792332268371 L61.64835164835165 84.50479233226837 L61.97802197802198 75.31948881789137 L62.30769230769231 46.29392971246006 L62.637362637362635 45.5591054313099 L62.967032967032964 44.456869009584665 L63.2967032967033 38.94568690095847 L63.62637362637363 44.82428115015975 L63.956043956043956 68.33865814696485 L64.28571428571428 69.07348242811501 L64.61538461538461 76.78913738019169 L64.94505494505495 62.460063897763575 L65.27472527472527 80.83067092651757 L65.6043956043956 87.81150159744409 L65.93406593406593 95.52715654952077 L66.26373626373626 109.85623003194888 L66.5934065934066 91.48562300319489 L66.92307692307692 88.17891373801916 L67.25274725274726 75.68690095846645 L67.58241758241758 56.94888178913738 L67.91208791208791 74.9520766773163 L68.24175824175823 65.7667731629393 L68.57142857142857 81.93290734824282 L68.9010989010989 85.60702875399362 L69.23076923076923 86.34185303514377 L69.56043956043956 77.15654952076677 L69.89010989010988 58.78594249201278 L70.21978021978022 63.9297124600639 L70.54945054945055 75.68690095846645 L70.87912087912088 64.66453674121405 L71.20879120879121 72.74760383386581 L71.53846153846153 55.47923322683706 L71.86813186813187 22.77955271565495 L72.19780219780219 0 L72.52747252747253 7.715654952076677 L72.85714285714286 31.96485623003195 L73.18681318681318 47.39616613418531 L73.51648351648352 32.332268370607025 L73.84615384615384 24.98402555910543 L74.17582417582418 38.57827476038339 L74.50549450549451 53.274760383386585 L74.83516483516483 73.84984025559106 L75.16483516483517 81.19808306709265 L75.49450549450549 63.56230031948881 L75.82417582417582 63.56230031948881 L76.15384615384615 76.4217252396166 L76.48351648351648 43.35463258785943 L76.81318681318682 41.51757188498403 L77.14285714285714 60.2555910543131 L77.47252747252747 50.33546325878594 L77.8021978021978 49.96805111821086 L78.13186813186813 26.08626198083067 L78.46153846153847 37.843450479233226 L78.79120879120879 39.680511182108624 L79.12087912087912 60.62300319488818 L79.45054945054945 60.62300319488818 L79.78021978021978 66.50159744408946 L80.1098901098901 51.0702875399361 L80.43956043956044 55.47923322683706 L80.76923076923077 74.9520766773163 L81.0989010989011 64.29712460063898 L81.42857142857143 42.25239616613418 L81.75824175824175 60.99041533546326 L82.08791208791209 56.581469648562305 L82.41758241758242 56.21405750798722 L82.74725274725274 67.97124600638978 L83.07692307692308 96.99680511182108 L83.4065934065934 115 L83.73626373626374 87.81150159744409 L84.06593406593406 82.30031948881789 L84.3956043956044 72.74760383386581 L84.72527472527473 71.27795527156549 L85.05494505494505 76.78913738019169 L85.38461538461539 45.926517571884986 L85.71428571428571 68.33865814696485 L86.04395604395604 51.43769968051118 L86.37362637362637 62.0926517571885 L86.7032967032967 77.15654952076677 L87.03296703296704 79.72843450479233 L87.36263736263736 67.23642172523962 L87.6923076923077 68.70607028753993 L88.02197802197801 70.17571884984027 L88.35164835164835 67.60383386581469 L88.68131868131869 63.9297124600639 L89.01098901098901 63.56230031948881 L89.34065934065934 65.03194888178913 L89.67032967032966 66.86900958466454 L90 65.7667731629393"/><path id="day-1" stroke-linejoin="round" stroke="currentColor" stroke-width="4" fill="none" d="M90 54.376996805111816 L90 54.376996805111816 L90.32967032967034 59.52076677316293 L90.65934065934066 59.52076677316293 L90.98901098901099 52.539936102236425 L91.31868131868131 51.0702875399361 L91.64835164835165 51.805111821086264 L91.97802197802199 52.9073482428115 L92.3076923076923 50.33546325878594 L92.63736263736264 51.43769968051118 L92.96703296703296 48.86581469648563 L93.2967032967033 52.17252396166134 L93.62637362637362 53.274760383386585 L93.95604395604396 56.21405750798722 L94.28571428571429 55.11182108626198 L94.61538461538461 53.274760383386585 L94.94505494505495 52.9073482428115 L95.27472527472527 50.33546325878594 L95.6043956043956 50.70287539936103 L95.93406593406593 45.5591054313099 L96.26373626373626 52.17252396166134 L96.5934065934066 51.805111821086264 L96.92307692307692 52.9073482428115 L97.25274725274726 56.21405750798722 L97.58241758241758 56.21405750798722 L97.91208791208791 76.4217252396166 L98.24175824175825 74.9520766773163 L98.57142857142857 78.6261980830671 L98.9010989010989 76.05431309904154 L99.23076923076923 67.23642172523962 L99.56043956043956 74.21725239616613 L99.8901098901099 72.01277955271566 L100.21978021978022 65.7667731629393 L100.54945054945055 62.82747603833866 L100.87912087912088 59.88817891373802 L101.20879120879121 67.97124600638978 L101.53846153846153 66.13418530351439 L101.86813186813187 65.03194888178913 L102.19780219780219 65.39936102236422 L102.52747252747253 69.4408945686901 L102.85714285714286 73.48242811501598 L103.18681318681318 66.50159744408946 L103.51648351648352 60.62300319488818 L103.84615384615384 60.2555910543131 L104.17582417582418 69.80830670926518 L104.50549450549451 81.19808306709265 L104.83516483516483 80.09584664536742 L105.16483516483517 77.15654952076677 L105.49450549450549 78.6261980830671 L105.82417582417582 77.89137380191694 L106.15384615384616 79.72843450479233 L106.48351648351648 80.83067092651757 L106.81318681318682 78.6261980830671 L107.14285714285714 79.72843450479233 L107.47252747252747 80.09584664536742 L107.80219780219781 78.99361022364218 L108.13186813186813 75.68690095846645 L108.46153846153845 71.64536741214057 L108.79120879120879 71.27795527156549 L109.12087912087912 71.27795527156549 L109.45054945054945 72.74760383386581 L109.78021978021978 73.1150159744409 L110.1098901098901 78.99361022364218 L110.43956043956044 78.6261980830671 L110.76923076923077 88.17891373801916 L111.0989010989011 87.44408945686901 L111.42857142857143 83.03514376996806 L111.75824175824175 81.93290734824282 L112.08791208791209 84.87220447284345 L112.41758241758242 81.56549520766774 L112.74725274725274 79.72843450479233 L113.07692307692308 78.99361022364218 L113.4065934065934 77.89137380191694 L113.73626373626374 76.4217252396166 L114.06593406593407 76.05431309904154 L114.3956043956044 79.72843450479233 L114.72527472527473 77.89137380191694 L115.05494505494505 76.78913738019169 L115.38461538461539 78.6261980830671 L115.71428571428572 79.36102236421725 L116.04395604395604 77.15654952076677 L116.37362637362637 76.4217252396166 L116.7032967032967 76.78913738019169 L117.03296703296704 80.09584664536742 L117.36263736263736 80.83067092651757 L117.6923076923077 82.30031948881789 L118.02197802197801 77.89137380191694 L118.35164835164835 81.56549520766774 L118.68131868131869 80.83067092651757 L119.01098901098901 83.40255591054313 L119.34065934065934 84.50479233226837 L119.67032967032966 77.89137380191694 L120 78.25878594249201"/></defs><use xlink:href="#day-0" style="color: #CCCCCC" transform="translate(0, 0)"/><use xlink:href="#day-1" style="color: #FF433D" mask="url(#down-mask)" transform="translate(0, 0)"/><use xlink:href="#day-1" style="color: #1DCC92" mask="url(#up-mask)" transform="translate(0, 0)"/></a>
                </svg>