<!DOCTYPE svg PUBLIC '-//W3C//DTD SVG 1.1//EN' 'http://www.w3.org/Graphics/SVG/1.1/DTD/svg11.dtd'>
                <svg xmlns="http://www.w3.org/2000/svg" version="1.1" viewBox="0 0 180 115" preserveAspectRatio="none" xmlns:xlink="http://www.w3.org/1999/xlink">
                    <a href="https://www.bloomberg.com/quote/ES1:IND" target="_top"><rect height="115" width="180" fill="transparent"></rect><defs><mask id="up-mask"><rect id="clipper" x="90" y="0" width="90" height="79.48529411764706" stroke-width="0" fill="#FFFFFF"></rect></mask><mask id="down-mask"><rect id="clipper" x="90" y="79.48529411764706" width="90" height="115" stroke-width="0" fill="#FFFFFF"></rect></mask><path id="day-0" stroke-linejoin="round" stroke="currentColor" stroke-width="4" fill="none" d="M0 69.33823529411764 L0 69.33823529411764 L0.32967032967032966 67.64705882352942 L0.6593406593406593 73.56617647058823 L0.989010989010989 71.02941176470588 L1.3186813186813187 76.10294117647058 L1.6483516483516483 65.95588235294117 L1.978021978021978 60.88235294117647 L2.3076923076923075 62.5735294117647 L2.6373626373626373 58.345588235294116 L2.967032967032967 59.19117647058823 L3.2967032967032965 55.80882352941176 L3.6263736263736264 54.96323529411765 L3.956043956043956 65.11029411764706 L4.285714285714286 67.64705882352942 L4.615384615384615 65.11029411764706 L4.945054945054945 60.88235294117647 L5.274725274725275 65.95588235294117 L5.604395604395604 71.875 L5.934065934065934 63.419117647058826 L6.263736263736264 68.49264705882352 L6.593406593406593 65.11029411764706 L6.923076923076923 54.11764705882353 L7.252747252747253 51.58088235294118 L7.582417582417582 52.42647058823529 L7.912087912087912 51.58088235294118 L8.241758241758241 32.13235294117647 L8.571428571428571 31.28676470588235 L8.901098901098901 33.82352941176471 L9.23076923076923 32.97794117647059 L9.56043956043956 32.13235294117647 L9.89010989010989 32.13235294117647 L10.219780219780219 41.43382352941176 L10.54945054945055 39.74264705882353 L10.87912087912088 41.43382352941176 L11.208791208791208 44.81617647058824 L11.538461538461538 43.125 L11.868131868131869 44.81617647058824 L12.197802197802197 42.279411764705884 L12.527472527472527 44.81617647058824 L12.857142857142858 49.88970588235294 L13.186813186813186 59.19117647058823 L13.516483516483516 53.27205882352941 L13.846153846153847 52.42647058823529 L14.175824175824175 40.58823529411765 L14.505494505494505 37.20588235294118 L14.835164835164836 27.90441176470588 L15.164835164835164 26.213235294117645 L15.494505494505495 27.90441176470588 L15.824175824175825 38.05147058823529 L16.153846153846153 32.13235294117647 L16.483516483516482 29.595588235294116 L16.813186813186814 33.82352941176471 L17.142857142857142 38.89705882352941 L17.47252747252747 39.74264705882353 L17.802197802197803 41.43382352941176 L18.13186813186813 37.20588235294118 L18.46153846153846 34.66911764705882 L18.791208791208792 35.51470588235294 L19.12087912087912 43.970588235294116 L19.45054945054945 39.74264705882353 L19.78021978021978 40.58823529411765 L20.10989010989011 45.66176470588235 L20.439560439560438 48.19852941176471 L20.76923076923077 54.11764705882353 L21.0989010989011 51.58088235294118 L21.428571428571427 52.42647058823529 L21.75824175824176 46.50735294117647 L22.087912087912088 48.19852941176471 L22.417582417582416 47.35294117647059 L22.747252747252748 50.73529411764706 L23.076923076923077 52.42647058823529 L23.406593406593405 50.73529411764706 L23.736263736263737 48.19852941176471 L24.065934065934066 43.125 L24.395604395604394 42.279411764705884 L24.725274725274726 44.81617647058824 L25.054945054945055 46.50735294117647 L25.384615384615383 45.66176470588235 L25.714285714285715 45.66176470588235 L26.043956043956044 60.88235294117647 L26.373626373626372 64.26470588235294 L26.703296703296704 62.5735294117647 L27.032967032967033 53.27205882352941 L27.36263736263736 53.27205882352941 L27.692307692307693 63.419117647058826 L28.021978021978022 65.95588235294117 L28.35164835164835 68.49264705882352 L28.681318681318682 75.25735294117648 L29.01098901098901 77.79411764705883 L29.34065934065934 87.94117647058823 L29.67032967032967 83.71323529411764 L30 84.55882352941177 L30.32967032967033 87.94117647058823 L30.65934065934066 79.48529411764706 L30.98901098901099 71.875 L31.318681318681318 59.19117647058823 L31.64835164835165 60.036764705882355 L31.978021978021978 51.58088235294118 L32.30769230769231 52.42647058823529 L32.637362637362635 58.345588235294116 L32.967032967032964 55.80882352941176 L33.2967032967033 57.5 L33.62637362637363 39.74264705882353 L33.956043956043956 44.81617647058824 L34.285714285714285 48.19852941176471 L34.61538461538461 42.279411764705884 L34.94505494505494 47.35294117647059 L35.27472527472528 44.81617647058824 L35.604395604395606 55.80882352941176 L35.934065934065934 38.89705882352941 L36.26373626373626 54.11764705882353 L36.59340659340659 49.88970588235294 L36.92307692307692 62.5735294117647 L37.252747252747255 69.33823529411764 L37.582417582417584 67.64705882352942 L37.91208791208791 73.56617647058823 L38.24175824175824 81.1764705882353 L38.57142857142857 77.79411764705883 L38.9010989010989 88.78676470588236 L39.23076923076923 93.86029411764706 L39.56043956043956 82.02205882352942 L39.89010989010989 88.78676470588236 L40.21978021978022 76.10294117647058 L40.54945054945055 68.49264705882352 L40.879120879120876 73.56617647058823 L41.20879120879121 66.8014705882353 L41.53846153846154 71.02941176470588 L41.86813186813187 82.02205882352942 L42.1978021978022 87.09558823529412 L42.527472527472526 87.09558823529412 L42.857142857142854 76.9485294117647 L43.18681318681318 87.09558823529412 L43.51648351648352 80.33088235294117 L43.84615384615385 81.1764705882353 L44.175824175824175 85.40441176470588 L44.505494505494504 90.47794117647058 L44.83516483516483 81.1764705882353 L45.16483516483516 77.79411764705883 L45.494505494505496 72.72058823529412 L45.824175824175825 84.55882352941177 L46.15384615384615 73.56617647058823 L46.48351648351648 71.02941176470588 L46.81318681318681 71.02941176470588 L47.14285714285714 73.56617647058823 L47.472527472527474 69.33823529411764 L47.8021978021978 71.02941176470588 L48.13186813186813 69.33823529411764 L48.46153846153846 69.33823529411764 L48.79120879120879 60.036764705882355 L49.12087912087912 59.19117647058823 L49.45054945054945 57.5 L49.78021978021978 60.88235294117647 L50.10989010989011 57.5 L50.43956043956044 53.27205882352941 L50.76923076923077 47.35294117647059 L51.098901098901095 44.81617647058824 L51.42857142857143 40.58823529411765 L51.75824175824176 40.58823529411765 L52.08791208791209 37.20588235294118 L52.417582417582416 36.36029411764706 L52.747252747252745 32.13235294117647 L53.07692307692307 27.058823529411764 L53.40659340659341 28.75 L53.73626373626374 28.75 L54.065934065934066 32.13235294117647 L54.395604395604394 42.279411764705884 L54.72527472527472 38.05147058823529 L55.05494505494505 35.51470588235294 L55.38461538461539 23.676470588235293 L55.714285714285715 24.52205882352941 L56.043956043956044 25.36764705882353 L56.37362637362637 26.213235294117645 L56.7032967032967 21.985294117647058 L57.03296703296703 27.058823529411764 L57.362637362637365 34.66911764705882 L57.69230769230769 36.36029411764706 L58.02197802197802 41.43382352941176 L58.35164835164835 46.50735294117647 L58.68131868131868 48.19852941176471 L59.01098901098901 60.88235294117647 L59.34065934065934 77.79411764705883 L59.67032967032967 65.95588235294117 L60 73.56617647058823 L60.32967032967033 64.26470588235294 L60.65934065934066 55.80882352941176 L60.989010989010985 53.27205882352941 L61.31868131868132 42.279411764705884 L61.64835164835165 87.09558823529412 L61.97802197802198 78.63970588235294 L62.30769230769231 47.35294117647059 L62.637362637362635 41.43382352941176 L62.967032967032964 38.05147058823529 L63.2967032967033 25.36764705882353 L63.62637362637363 32.97794117647059 L63.956043956043956 60.036764705882355 L64.28571428571428 70.18382352941177 L64.61538461538461 81.1764705882353 L64.94505494505495 61.72794117647059 L65.27472527472527 76.9485294117647 L65.6043956043956 83.71323529411764 L65.93406593406593 92.16911764705883 L66.26373626373626 114.15441176470588 L66.5934065934066 92.16911764705883 L66.92307692307692 88.78676470588236 L67.25274725274726 82.02205882352942 L67.58241758241758 62.5735294117647 L67.91208791208791 80.33088235294117 L68.24175824175823 74.41176470588236 L68.57142857142857 93.86029411764706 L68.9010989010989 93.86029411764706 L69.23076923076923 90.47794117647058 L69.56043956043956 81.1764705882353 L69.89010989010988 56.654411764705884 L70.21978021978022 60.88235294117647 L70.54945054945055 76.10294117647058 L70.87912087912088 66.8014705882353 L71.20879120879121 76.9485294117647 L71.53846153846153 60.036764705882355 L71.86813186813187 21.139705882352942 L72.19780219780219 0 L72.52747252747253 10.147058823529413 L72.85714285714286 37.20588235294118 L73.18681318681318 47.35294117647059 L73.51648351648352 32.97794117647059 L73.84615384615384 27.058823529411764 L74.17582417582418 43.970588235294116 L74.50549450549451 55.80882352941176 L74.83516483516483 73.56617647058823 L75.16483516483517 78.63970588235294 L75.49450549450549 59.19117647058823 L75.82417582417582 60.036764705882355 L76.15384615384615 76.10294117647058 L76.48351648351648 45.66176470588235 L76.81318681318682 45.66176470588235 L77.14285714285714 64.26470588235294 L77.47252747252747 54.96323529411765 L77.8021978021978 53.27205882352941 L78.13186813186813 30.441176470588236 L78.46153846153847 41.43382352941176 L78.79120879120879 43.970588235294116 L79.12087912087912 61.72794117647059 L79.45054945054945 62.5735294117647 L79.78021978021978 67.64705882352942 L80.1098901098901 51.58088235294118 L80.43956043956044 54.11764705882353 L80.76923076923077 75.25735294117648 L81.0989010989011 64.26470588235294 L81.42857142857143 38.89705882352941 L81.75824175824175 60.036764705882355 L82.08791208791209 57.5 L82.41758241758242 56.654411764705884 L82.74725274725274 71.875 L83.07692307692308 99.77941176470588 L83.4065934065934 115 L83.73626373626374 86.25 L84.06593406593406 81.1764705882353 L84.3956043956044 69.33823529411764 L84.72527472527473 67.64705882352942 L85.05494505494505 76.9485294117647 L85.38461538461539 47.35294117647059 L85.71428571428571 72.72058823529412 L86.04395604395604 58.345588235294116 L86.37362637362637 70.18382352941177 L86.7032967032967 83.71323529411764 L87.03296703296704 86.25 L87.36263736263736 77.79411764705883 L87.6923076923077 77.79411764705883 L88.02197802197801 79.48529411764706 L88.35164835164835 80.33088235294117 L88.68131868131869 74.41176470588236 L89.01098901098901 71.875 L89.34065934065934 75.25735294117648 L89.67032967032966 77.79411764705883 L90 77.79411764705883"/><path id="day-1" stroke-linejoin="round" stroke="currentColor" stroke-width="4" fill="none" d="M90 66.8014705882353 L90 66.8014705882353 L90.32967032967034 68.49264705882352 L90.65934065934066 67.64705882352942 L90.98901098901099 60.88235294117647 L91.31868131868131 60.88235294117647 L91.64835164835165 59.19117647058823 L91.97802197802199 59.19117647058823 L92.3076923076923 58.345588235294116 L92.63736263736264 56.654411764705884 L92.96703296703296 54.96323529411765 L93.2967032967033 60.036764705882355 L93.62637362637362 60.88235294117647 L93.95604395604396 63.419117647058826 L94.28571428571429 63.419117647058826 L94.61538461538461 60.88235294117647 L94.94505494505495 60.036764705882355 L95.27472527472527 57.5 L95.6043956043956 59.19117647058823 L95.93406593406593 52.42647058823529 L96.26373626373626 58.345588235294116 L96.5934065934066 58.345588235294116 L96.92307692307692 60.036764705882355 L97.25274725274726 65.95588235294117 L97.58241758241758 65.95588235294117 L97.91208791208791 87.94117647058823 L98.24175824175825 85.40441176470588 L98.57142857142857 85.40441176470588 L98.9010989010989 83.71323529411764 L99.23076923076923 73.56617647058823 L99.56043956043956 81.1764705882353 L99.8901098901099 78.63970588235294 L100.21978021978022 72.72058823529412 L100.54945054945055 67.64705882352942 L100.87912087912088 65.11029411764706 L101.20879120879121 71.02941176470588 L101.53846153846153 69.33823529411764 L101.86813186813187 67.64705882352942 L102.19780219780219 67.64705882352942 L102.52747252747253 73.56617647058823 L102.85714285714286 77.79411764705883 L103.18681318681318 72.72058823529412 L103.51648351648352 65.95588235294117 L103.84615384615384 65.11029411764706 L104.17582417582418 72.72058823529412 L104.50549450549451 86.25 L104.83516483516483 86.25 L105.16483516483517 82.02205882352942 L105.49450549450549 84.55882352941177 L105.82417582417582 82.86764705882352 L106.15384615384616 84.55882352941177 L106.48351648351648 86.25 L106.81318681318682 83.71323529411764 L107.14285714285714 84.55882352941177 L107.47252747252747 85.40441176470588 L107.80219780219781 82.86764705882352 L108.13186813186813 80.33088235294117 L108.46153846153845 76.9485294117647 L108.79120879120879 76.10294117647058 L109.12087912087912 76.10294117647058 L109.45054945054945 77.79411764705883 L109.78021978021978 77.79411764705883 L110.1098901098901 84.55882352941177 L110.43956043956044 86.25 L110.76923076923077 97.24264705882352 L111.0989010989011 95.5514705882353 L111.42857142857143 92.16911764705883 L111.75824175824175 90.47794117647058 L112.08791208791209 93.86029411764706 L112.41758241758242 92.16911764705883 L112.74725274725274 89.63235294117648 L113.07692307692308 87.94117647058823 L113.4065934065934 85.40441176470588 L113.73626373626374 85.40441176470588 L114.06593406593407 86.25 L114.3956043956044 90.47794117647058 L114.72527472527473 87.94117647058823 L115.05494505494505 86.25 L115.38461538461539 88.78676470588236 L115.71428571428572 91.3235294117647 L116.04395604395604 88.78676470588236 L116.37362637362637 87.94117647058823 L116.7032967032967 90.47794117647058 L117.03296703296704 93.01470588235294 L117.36263736263736 93.86029411764706 L117.6923076923077 94.70588235294117 L118.02197802197801 89.63235294117648 L118.35164835164835 93.01470588235294 L118.68131868131869 93.01470588235294 L119.01098901098901 95.5514705882353 L119.34065934065934 96.39705882352942 L119.67032967032966 88.78676470588236 L120 88.78676470588236"/></defs><use xlink:href="#day-0" style="color: #CCCCCC" transform="translate(0, 0)"/><use xlink:href="#day-1" style="color: #FF433D" mask="url(#down-mask)" transform="translate(0, 0)"/><use xlink:href="#day-1" style="color: #1DCC92" mask="url(#up-mask)" transform="translate(0, 0)"/></a>
                </svg>