<!DOCTYPE svg PUBLIC '-//W3C//DTD SVG 1.1//EN' 'http://www.w3.org/Graphics/SVG/1.1/DTD/svg11.dtd'>
                <svg xmlns="http://www.w3.org/2000/svg" version="1.1" viewBox="0 0 180 115" preserveAspectRatio="none" xmlns:xlink="http://www.w3.org/1999/xlink">
                    <a href="https://www.bloomberg.com/quote/EURUSD:CUR" target="_top"><rect height="115" width="180" fill="transparent"></rect><defs><mask id="up-mask"><rect id="clipper" x="90" y="0" width="90" height="108.29166666666741" stroke-width="0" fill="#FFFFFF"></rect></mask><mask id="down-mask"><rect id="clipper" x="90" y="108.29166666666741" width="90" height="115" stroke-width="0" fill="#FFFFFF"></rect></mask><path id="day-0" stroke-linejoin="round" stroke="currentColor" stroke-width="4" fill="none" d="M0 17.250000000000213 L0 17.250000000000213 L0.313588850174216 14.375000000000533 L0.627177700348432 15.333333333333758 L0.940766550522648 14.375000000000533 L1.254355400696864 14.375000000000533 L1.5679442508710801 15.333333333333758 L1.881533101045296 15.333333333333758 L2.195121951219512 14.375000000000533 L2.508710801393728 15.333333333333758 L2.822299651567944 16.291666666666984 L3.1358885017421603 16.291666666666984 L3.449477351916376 13.416666666667306 L3.763066202090592 15.333333333333758 L4.076655052264808 14.375000000000533 L4.390243902439024 14.375000000000533 L4.70383275261324 14.375000000000533 L5.017421602787456 14.375000000000533 L5.331010452961672 14.375000000000533 L5.644599303135888 14.375000000000533 L5.958188153310104 13.416666666667306 L6.2717770034843205 13.416666666667306 L6.585365853658536 12.458333333334078 L6.898954703832752 13.416666666667306 L7.2125435540069684 13.416666666667306 L7.526132404181184 13.416666666667306 L7.8397212543554 13.416666666667306 L8.153310104529616 12.458333333334078 L8.466898954703833 12.458333333334078 L8.780487804878048 13.416666666667306 L9.094076655052264 14.375000000000533 L9.40766550522648 13.416666666667306 L9.721254355400696 14.375000000000533 L10.034843205574912 13.416666666667306 L10.348432055749129 13.416666666667306 L10.662020905923344 13.416666666667306 L10.97560975609756 11.50000000000085 L11.289198606271777 11.50000000000085 L11.602787456445991 9.58333333333227 L11.916376306620208 11.50000000000085 L12.229965156794425 8.624999999999043 L12.543554006968641 8.624999999999043 L12.857142857142856 7.666666666665816 L13.170731707317072 8.624999999999043 L13.484320557491289 7.666666666665816 L13.797909407665504 8.624999999999043 L14.11149825783972 6.708333333332589 L14.425087108013937 8.624999999999043 L14.738675958188152 7.666666666665816 L15.052264808362368 6.708333333332589 L15.365853658536585 8.624999999999043 L15.6794425087108 8.624999999999043 L15.993031358885016 9.58333333333227 L16.306620209059233 9.58333333333227 L16.62020905923345 6.708333333332589 L16.933797909407666 3.833333333332908 L17.24738675958188 4.791666666666135 L17.560975609756095 6.708333333332589 L17.874564459930312 5.749999999999362 L18.18815331010453 3.833333333332908 L18.501742160278745 4.791666666666135 L18.81533101045296 7.666666666665816 L19.128919860627175 7.666666666665816 L19.44250871080139 9.58333333333227 L19.756097560975608 7.666666666665816 L20.069686411149824 7.666666666665816 L20.38327526132404 1.916666666666454 L20.696864111498257 1.916666666666454 L21.010452961672474 2.874999999999681 L21.324041811846687 3.833333333332908 L21.637630662020904 2.874999999999681 L21.95121951219512 0 L22.264808362369337 2.874999999999681 L22.578397212543553 1.916666666666454 L22.89198606271777 3.833333333332908 L23.205574912891983 3.833333333332908 L23.5191637630662 2.874999999999681 L23.832752613240416 1.916666666666454 L24.146341463414632 1.916666666666454 L24.45993031358885 1.916666666666454 L24.773519163763066 2.874999999999681 L25.087108013937282 1.916666666666454 L25.400696864111495 0.958333333333227 L25.71428571428571 0.958333333333227 L26.02787456445993 0 L26.341463414634145 2.874999999999681 L26.65505226480836 4.791666666666135 L26.968641114982578 2.874999999999681 L27.28222996515679 3.833333333332908 L27.595818815331008 3.833333333332908 L27.909407665505224 2.874999999999681 L28.22299651567944 5.749999999999362 L28.536585365853657 6.708333333332589 L28.850174216027874 5.749999999999362 L29.163763066202087 6.708333333332589 L29.477351916376303 11.50000000000085 L29.79094076655052 12.458333333334078 L30.104529616724736 13.416666666667306 L30.418118466898953 16.291666666666984 L30.73170731707317 15.333333333333758 L31.045296167247386 16.291666666666984 L31.3588850174216 15.333333333333758 L31.672473867595816 13.416666666667306 L31.986062717770032 12.458333333334078 L32.299651567944245 13.416666666667306 L32.613240418118465 13.416666666667306 L32.92682926829268 11.50000000000085 L33.2404181184669 10.541666666665495 L33.55400696864111 14.375000000000533 L33.86759581881533 16.291666666666984 L34.181184668989545 15.333333333333758 L34.49477351916376 19.166666666666664 L34.80836236933798 27.79166666666571 L35.12195121951219 27.79166666666571 L35.43554006968641 23.958333333332803 L35.749128919860624 35.458333333333655 L36.062717770034844 31.625000000000743 L36.37630662020906 30.666666666667517 L36.68989547038327 27.79166666666571 L37.00348432055749 23.958333333332803 L37.3170731707317 25.874999999999254 L37.63066202090592 22.041666666666348 L37.944250871080136 19.166666666666664 L38.25783972125435 29.708333333332163 L38.57142857142857 33.5416666666672 L38.88501742160278 36.416666666666885 L39.198606271777 34.500000000000426 L39.512195121951216 31.625000000000743 L39.825783972125436 29.708333333332163 L40.13937282229965 29.708333333332163 L40.45296167247386 27.79166666666571 L40.76655052264808 26.833333333332483 L41.080139372822295 21.083333333333123 L41.393728222996515 18.208333333333442 L41.70731707317073 15.333333333333758 L42.02090592334495 15.333333333333758 L42.33449477351916 18.208333333333442 L42.648083623693374 21.083333333333123 L42.961672473867594 17.250000000000213 L43.27526132404181 22.041666666666348 L43.58885017421603 19.166666666666664 L43.90243902439024 15.333333333333758 L44.21602787456445 20.124999999999893 L44.52961672473867 21.083333333333123 L44.843205574912886 22.999999999999574 L45.15679442508711 30.666666666667517 L45.47038327526132 32.58333333333397 L45.78397212543554 30.666666666667517 L46.09756097560975 31.625000000000743 L46.411149825783966 29.708333333332163 L46.724738675958186 22.999999999999574 L47.0383275261324 28.749999999998938 L47.35191637630662 31.625000000000743 L47.66550522648083 35.458333333333655 L47.97909407665505 29.708333333332163 L48.292682926829265 29.708333333332163 L48.60627177700348 27.79166666666571 L48.9198606271777 22.999999999999574 L49.23344947735191 22.999999999999574 L49.54703832752613 22.999999999999574 L49.860627177700344 26.833333333332483 L50.174216027874564 28.749999999998938 L50.48780487804878 28.749999999998938 L50.80139372822299 31.625000000000743 L51.11498257839721 25.874999999999254 L51.42857142857142 24.91666666666603 L51.742160278745644 27.79166666666571 L52.05574912891986 23.958333333332803 L52.36933797909407 28.749999999998938 L52.68292682926829 27.79166666666571 L52.9965156794425 27.79166666666571 L53.31010452961672 26.833333333332483 L53.623693379790936 26.833333333332483 L53.937282229965156 24.91666666666603 L54.25087108013937 22.041666666666348 L54.56445993031358 19.166666666666664 L54.8780487804878 19.166666666666664 L55.191637630662015 22.041666666666348 L55.505226480836235 21.083333333333123 L55.81881533101045 23.958333333332803 L56.13240418118467 16.291666666666984 L56.44599303135888 16.291666666666984 L56.759581881533094 19.166666666666664 L57.073170731707314 22.041666666666348 L57.38675958188153 20.124999999999893 L57.70034843205575 25.874999999999254 L58.01393728222996 26.833333333332483 L58.327526132404174 28.749999999998938 L58.641114982578394 25.874999999999254 L58.95470383275261 30.666666666667517 L59.26829268292683 36.416666666666885 L59.58188153310104 35.458333333333655 L59.89547038327526 36.416666666666885 L60.20905923344947 44.083333333332696 L60.522648083623686 48.87499999999883 L60.836236933797906 53.6666666666671 L61.14982578397212 51.75000000000064 L61.46341463414634 58.45833333333323 L61.77700348432055 64.20833333333259 L62.09059233449477 63.24999999999937 L62.404181184668985 67.08333333333226 L62.7177700348432 70.91666666666731 L63.03135888501742 80.49999999999957 L63.34494773519163 74.75000000000021 L63.65853658536585 74.75000000000021 L63.972125435540065 76.66666666666666 L64.28571428571428 72.83333333333377 L64.59930313588849 69.95833333333408 L64.91289198606272 72.83333333333377 L65.22648083623693 71.87500000000054 L65.54006968641114 74.75000000000021 L65.85365853658536 69.95833333333408 L66.16724738675958 69.95833333333408 L66.4808362369338 69.95833333333408 L66.79442508710801 69.95833333333408 L67.10801393728222 69.95833333333408 L67.42160278745644 67.08333333333226 L67.73519163763066 62.29166666666614 L68.04878048780488 59.41666666666646 L68.36236933797909 63.24999999999937 L68.6759581881533 69.95833333333408 L68.98954703832752 72.83333333333377 L69.30313588850174 69.95833333333408 L69.61672473867596 72.83333333333377 L69.93031358885017 68.99999999999872 L70.24390243902438 68.04166666666549 L70.5574912891986 65.1666666666658 L70.87108013937282 69.95833333333408 L71.18466898954703 68.04166666666549 L71.49825783972125 71.87500000000054 L71.81184668989546 70.91666666666731 L72.12543554006969 70.91666666666731 L72.4390243902439 72.83333333333377 L72.75261324041811 71.87500000000054 L73.06620209059233 71.87500000000054 L73.37979094076654 71.87500000000054 L73.69337979094077 69.95833333333408 L74.00696864111498 74.75000000000021 L74.3205574912892 74.75000000000021 L74.6341463414634 78.58333333333312 L74.94773519163762 71.87500000000054 L75.26132404181185 68.04166666666549 L75.57491289198606 68.99999999999872 L75.88850174216027 72.83333333333377 L76.20209059233449 77.62499999999989 L76.5156794425087 84.33333333333249 L76.82926829268293 86.24999999999893 L77.14285714285714 91.0416666666672 L77.45644599303135 93.91666666666688 L77.77003484320556 97.74999999999979 L78.08362369337979 101.58333333333269 L78.397212543554 96.79166666666657 L78.71080139372822 99.66666666666623 L79.02439024390243 101.58333333333269 L79.33797909407664 102.54166666666592 L79.65156794425087 104.45833333333238 L79.96515679442508 112.12500000000031 L80.2787456445993 113.08333333333354 L80.59233449477351 106.37499999999883 L80.90592334494772 107.33333333333206 L81.21951219512195 109.25000000000064 L81.53310104529616 105.4166666666656 L81.84668989547038 106.37499999999883 L82.16027874564459 103.49999999999915 L82.4738675958188 103.49999999999915 L82.78745644599303 103.49999999999915 L83.10104529616724 103.49999999999915 L83.41463414634146 103.49999999999915 L83.72822299651567 109.25000000000064 L84.0418118466899 108.29166666666741 L84.35540069686411 108.29166666666741 L84.66898954703832 109.25000000000064 L84.98257839721254 114.04166666666677 L85.29616724738675 110.20833333333385 L85.60975609756098 115 L85.92334494773519 115 L86.2369337979094 115 L86.55052264808361 113.08333333333354 L86.86411149825783 109.25000000000064 L87.17770034843205 108.29166666666741 L87.49128919860627 108.29166666666741 L87.80487804878048 107.33333333333206 L88.1184668989547 106.37499999999883 L88.4320557491289 108.29166666666741 L88.74564459930313 108.29166666666741 L89.05923344947735 108.29166666666741 L89.37282229965156 109.25000000000064 L89.68641114982577 109.25000000000064 L90 108.29166666666741"/><path id="day-1" stroke-linejoin="round" stroke="currentColor" stroke-width="4" fill="none" d="M90 107.33333333333206 L90 107.33333333333206 L90.31358885017421 108.29166666666741 L90.62717770034843 109.25000000000064 L90.94076655052265 108.29166666666741 L91.25435540069687 107.33333333333206 L91.56794425087108 107.33333333333206 L91.88153310104529 106.37499999999883 L92.1951219512195 107.33333333333206 L92.50871080139373 105.4166666666656 L92.82229965156795 105.4166666666656 L93.13588850174216 106.37499999999883 L93.44947735191637 106.37499999999883 L93.7630662020906 106.37499999999883 L94.07665505226481 106.37499999999883 L94.39024390243902 106.37499999999883 L94.70383275261324 107.33333333333206 L95.01742160278745 106.37499999999883 L95.33101045296168 106.37499999999883 L95.64459930313589 105.4166666666656 L95.9581881533101 104.45833333333238 L96.27177700348432 105.4166666666656 L96.58536585365853 103.49999999999915 L96.89895470383276 105.4166666666656 L97.21254355400697 103.49999999999915 L97.52613240418118 106.37499999999883 L97.8397212543554 107.33333333333206 L98.15331010452962 106.37499999999883 L98.46689895470384 106.37499999999883 L98.78048780487805 107.33333333333206 L99.09407665505226 108.29166666666741 L99.40766550522648 106.37499999999883 L99.7212543554007 110.20833333333385 L100.03484320557492 110.20833333333385 L100.34843205574913 109.25000000000064 L100.66202090592334 110.20833333333385 L100.97560975609755 108.29166666666741 L101.28919860627178 104.45833333333238 L101.602787456446 108.29166666666741 L101.91637630662021 111.16666666666708 L102.22996515679442 113.08333333333354 L102.54355400696863 112.12500000000031 L102.85714285714286 111.16666666666708 L103.17073170731707 108.29166666666741 L103.48432055749129 108.29166666666741 L103.7979094076655 105.4166666666656 L104.11149825783971 105.4166666666656 L104.42508710801394 104.45833333333238 L104.73867595818815 104.45833333333238 L105.05226480836237 103.49999999999915 L105.36585365853658 101.58333333333269 L105.67944250871079 99.66666666666623 L105.99303135888502 98.708333333333 L106.30662020905923 97.74999999999979 L106.62020905923345 99.66666666666623 L106.93379790940767 97.74999999999979 L107.24738675958187 98.708333333333 L107.5609756097561 98.708333333333 L107.87456445993031 94.87500000000011 L108.18815331010452 94.87500000000011 L108.50174216027875 96.79166666666657 L108.81533101045297 98.708333333333 L109.12891986062718 98.708333333333 L109.44250871080139 98.708333333333 L109.7560975609756 93.91666666666688 L110.06968641114983 92.95833333333366 L110.38327526132404 92.95833333333366 L110.69686411149826 92.95833333333366 L111.01045296167247 92.95833333333366 L111.32404181184668 94.87500000000011 L111.63763066202091 92.00000000000043 L111.95121951219512 92.95833333333366 L112.26480836236934 93.91666666666688 L112.57839721254355 93.91666666666688 L112.89198606271776 92.95833333333366 L113.20557491289199 95.83333333333334 L113.5191637630662 93.91666666666688 L113.83275261324042 93.91666666666688 L114.14634146341463 93.91666666666688 L114.45993031358884 93.91666666666688 L114.77351916376307 93.91666666666688 L115.08710801393728 91.0416666666672 L115.4006968641115 90.08333333333397 L115.71428571428571 91.0416666666672 L116.02787456445992 90.08333333333397 L116.34146341463415 89.12500000000074 L116.65505226480836 89.12500000000074 L116.96864111498257 87.20833333333216 L117.28222996515679 88.16666666666539 L117.595818815331 88.16666666666539 L117.90940766550523 89.12500000000074 L118.22299651567944 89.12500000000074 L118.53658536585365 89.12500000000074 L118.85017421602788 90.08333333333397 L119.16376306620208 87.20833333333216 L119.4773519163763 88.16666666666539 L119.79094076655052 87.20833333333216 L120.10452961672473 87.20833333333216 L120.41811846689896 90.08333333333397 L120.73170731707317 91.0416666666672 L121.04529616724739 91.0416666666672 L121.3588850174216 90.08333333333397 L121.67247386759581 88.16666666666539 L121.98606271777004 88.16666666666539 L122.29965156794424 87.20833333333216 L122.61324041811847 84.33333333333249 L122.92682926829268 85.29166666666572 L123.24041811846689 85.29166666666572"/></defs><use xlink:href="#day-0" style="color: #CCCCCC" transform="translate(0, 0)"/><use xlink:href="#day-1" style="color: #FF433D" mask="url(#down-mask)" transform="translate(0, 0)"/><use xlink:href="#day-1" style="color: #1DCC92" mask="url(#up-mask)" transform="translate(0, 0)"/></a>
                </svg>