<!DOCTYPE svg PUBLIC '-//W3C//DTD SVG 1.1//EN' 'http://www.w3.org/Graphics/SVG/1.1/DTD/svg11.dtd'>
                <svg xmlns="http://www.w3.org/2000/svg" version="1.1" viewBox="0 0 180 115" preserveAspectRatio="none" xmlns:xlink="http://www.w3.org/1999/xlink">
                    <a href="https://www.bloomberg.com/quote/NKY:IND" target="_top"><rect height="115" width="180" fill="transparent"></rect><defs><mask id="up-mask"><rect id="clipper" x="90" y="0" width="90" height="60.9978338202266" stroke-width="0" fill="#FFFFFF"></rect></mask><mask id="down-mask"><rect id="clipper" x="90" y="60.9978338202266" width="90" height="115" stroke-width="0" fill="#FFFFFF"></rect></mask><path id="day-0" stroke-linejoin="round" stroke="currentColor" stroke-width="4" fill="none" d="M0 107.72779665732631 L0 107.72779665732631 L1.4285714285714286 83.45436117569922 L2.857142857142857 82.10824936902593 L4.285714285714286 97.21486913491923 L5.714285714285714 103.70774458951887 L7.142857142857143 101.25091913591287 L8.571428571428571 104.16939923289424 L10 113.96241976191875 L11.428571428571429 106.41139529799918 L12.857142857142858 105.75090919930813 L14.285714285714286 115 L15.714285714285715 112.6094516981659 L17.142857142857142 107.77579045688492 L18.571428571428573 97.37713388580836 L20 98.45356624734241 L21.42857142857143 97.88221149068985 L22.857142857142858 104.86416661698395 L24.285714285714285 95.64021542558491 L25.714285714285715 93.04397941135556 L27.142857142857142 82.49448518452276 L28.571428571428573 87.01504401915754 L30 77.6174009817365 L31.42857142857143 80.38732884198785 L32.85714285714286 80.48103102207885 L34.285714285714285 83.09097955046816 L35.714285714285715 75.18800055644958 L37.142857142857146 71.0399650231525 L38.57142857142857 78.60927283928537 L40 81.00439197917278 L41.42857142857143 81.96883880840258 L42.85714285714286 81.95969713229593 L44.285714285714285 81.95969713229593 L45.714285714285715 88.88451678292478 L47.142857142857146 87.8652198970568 L48.57142857142857 82.66817703054477 L50 87.0447544665037 L51.42857142857143 85.8677636677991 L52.85714285714286 87.72123849838013 L54.285714285714285 86.68594367932596 L55.714285714285715 72.78145432142928 L57.142857142857146 74.33096842147074 L58.57142857142857 77.59911762952405 L60 76.29871420338229 L61.42857142857143 74.14127864226252 L62.85714285714286 69.31447365806196 L64.28571428571429 77.75224070430653 L65.71428571428572 82.55619149824135 L67.14285714285714 84.17883900713427 L68.57142857142857 75.43025497327056 L70 77.54426757288503 L71.42857142857143 90.15063892366703 L72.85714285714286 91.56531330113847 L74.28571428571429 89.92666785905934 L75.71428571428572 95.34768179017908 L77.14285714285714 101.33319422087096 L78.57142857142857 112.57974125081972 L80 103.69860291341223 L81.42857142857143 99.43401100975757 L82.85714285714286 96.58866432162768 L84.28571428571429 87.96577833422735 L85.71428571428572 82.79158965798192 L87.14285714285714 62.49935412070947 L88.57142857142857 60.9978338202266 L90 60.9978338202266"/><path id="day-1" stroke-linejoin="round" stroke="currentColor" stroke-width="4" fill="none" d="M90 17.636578628350765 L90 17.636578628350765 L91.42857142857143 19.901428883721476 L92.85714285714286 12.117291679087552 L94.28571428571429 2.84306126910283 L95.71428571428571 0 L97.14285714285714 9.173671972813342 L98.57142857142857 12.281841849002925 L100 8.808004928556036 L101.42857142857143 11.401955523758318 L102.85714285714286 10.20439595381419 L104.28571428571429 15.613982789801042 L105.71428571428572 17.858264273932225 L107.14285714285714 15.435720105725713 L108.57142857142857 14.274727240207314 L110 17.10179057612394 L111.42857142857143 24.66195671615099 L112.85714285714286 17.36004292613113 L114.28571428571428 14.416423219856917 L115.71428571428572 16.0367853097236 L117.14285714285714 25.788668296269897 L118.57142857142857 27.299330272859397 L120 32.56036487211542 L121.42857142857143 30.167531151255073 L122.85714285714286 31.762753631828915 L124.28571428571428 32.334108388481475 L125.71428571428572 32.190126989804796 L127.14285714285714 37.53800751207307 L128.57142857142856 33.8744808124163 L130 34.46640434030839 L131.42857142857144 32.42323973051914 L132.85714285714286 32.964884039825535 L134.28571428571428 32.964884039825535 L135.71428571428572 33.72821399471338 L137.14285714285714 41.49406784713485 L138.57142857142856 38.07736640235322 L140 34.21043740932828 L141.42857142857144 36.74953794789238 L142.85714285714286 35.19088217174426 L144.28571428571428 37.149486277549165 L145.71428571428572 37.72998271030836 L147.14285714285714 40.56161688427831 L148.57142857142856 35.77366402352971 L150 36.25360201911752 L151.42857142857144 36.65583576780139 L152.85714285714286 38.08422265943278 L154.28571428571428 38.230489477135706 L155.71428571428572 40.186808163914364 L157.14285714285714 51.808163914227066 L158.57142857142856 57.93080148651608 L160 63.73805123313265 L161.42857142857144 66.69081261551267 L162.85714285714286 61.77259087024818 L164.28571428571428 64.71392515749531 L165.71428571428572 62.48564160655033 L167.14285714285714 58.154772551123784 L168.57142857142856 59.76370754585759"/></defs><use xlink:href="#day-0" style="color: #CCCCCC" transform="translate(0, 0)"/><use xlink:href="#day-1" style="color: #FF433D" mask="url(#down-mask)" transform="translate(0, 0)"/><use xlink:href="#day-1" style="color: #1DCC92" mask="url(#up-mask)" transform="translate(0, 0)"/></a>
                </svg>