<!DOCTYPE svg PUBLIC '-//W3C//DTD SVG 1.1//EN' 'http://www.w3.org/Graphics/SVG/1.1/DTD/svg11.dtd'>
                <svg xmlns="http://www.w3.org/2000/svg" version="1.1" viewBox="0 0 180 115" preserveAspectRatio="none" xmlns:xlink="http://www.w3.org/1999/xlink">
                    <a href="https://www.bloomberg.com/quote/Z%201:IND" target="_top"><rect height="115" width="180" fill="transparent"></rect><defs><mask id="up-mask"><rect id="clipper" x="90" y="0" width="90" height="57.5" stroke-width="0" fill="#FFFFFF"></rect></mask><mask id="down-mask"><rect id="clipper" x="90" y="57.5" width="90" height="115" stroke-width="0" fill="#FFFFFF"></rect></mask><path id="day-0" stroke-linejoin="round" stroke="currentColor" stroke-width="4" fill="none" d="M0 101.66666666666667 L0 101.66666666666667 L0.3930131004366812 90.83333333333333 L0.7860262008733624 91.66666666666667 L1.1790393013100435 92.5 L1.5720524017467248 92.08333333333333 L1.965065502183406 90.41666666666667 L2.358078602620087 90.41666666666667 L2.7510917030567685 92.5 L3.1441048034934496 90.83333333333333 L3.5371179039301306 92.08333333333333 L3.930131004366812 92.08333333333333 L4.323144104803493 92.08333333333333 L4.716157205240174 91.25 L5.109170305676855 92.5 L5.502183406113537 95.41666666666667 L5.895196506550218 94.58333333333333 L6.288209606986899 94.16666666666666 L6.68122270742358 87.08333333333334 L7.074235807860261 90.41666666666667 L7.467248908296943 83.75 L7.860262008733624 85.41666666666666 L8.253275109170305 86.66666666666667 L8.646288209606986 90.83333333333333 L9.039301310043667 88.33333333333333 L9.432314410480348 85.83333333333333 L9.82532751091703 86.66666666666667 L10.21834061135371 92.08333333333333 L10.611353711790393 91.66666666666667 L11.004366812227074 92.91666666666667 L11.397379912663755 88.33333333333333 L11.790393013100436 89.16666666666667 L12.183406113537117 90.41666666666667 L12.576419213973798 90.41666666666667 L12.96943231441048 91.25 L13.36244541484716 93.33333333333334 L13.755458515283841 92.91666666666667 L14.148471615720522 98.33333333333334 L14.541484716157203 93.75 L14.934497816593886 94.58333333333333 L15.327510917030567 95 L15.720524017467248 87.91666666666666 L16.113537117903928 89.16666666666667 L16.50655021834061 90 L16.899563318777293 87.91666666666666 L17.292576419213972 87.08333333333334 L17.685589519650655 94.58333333333333 L18.078602620087334 95.83333333333334 L18.471615720524017 96.25 L18.864628820960696 91.66666666666667 L19.25764192139738 92.91666666666667 L19.65065502183406 94.16666666666666 L20.04366812227074 97.91666666666667 L20.43668122270742 96.66666666666666 L20.829694323144103 99.16666666666667 L21.222707423580786 99.16666666666667 L21.615720524017465 102.08333333333333 L22.00873362445415 101.66666666666667 L22.401746724890828 102.91666666666666 L22.79475982532751 105 L23.18777292576419 101.25 L23.580786026200872 99.58333333333333 L23.97379912663755 97.08333333333333 L24.366812227074234 98.75 L24.759825327510914 95.83333333333334 L25.152838427947597 93.75 L25.54585152838428 95.41666666666667 L25.93886462882096 95.83333333333334 L26.33187772925764 95.83333333333334 L26.72489082969432 89.16666666666667 L27.117903930131003 91.25 L27.510917030567683 92.91666666666667 L27.903930131004365 91.25 L28.296943231441045 95.83333333333334 L28.689956331877728 95 L29.082969432314407 92.5 L29.47598253275109 82.91666666666667 L29.868995633187772 87.08333333333334 L30.26200873362445 85 L30.655021834061134 90.41666666666667 L31.048034934497814 94.58333333333333 L31.441048034934497 94.16666666666666 L31.834061135371176 98.33333333333334 L32.227074235807855 100.83333333333333 L32.62008733624454 98.75 L33.01310043668122 104.58333333333334 L33.4061135371179 111.25 L33.799126637554586 102.91666666666666 L34.19213973799126 105.41666666666666 L34.585152838427945 98.33333333333334 L34.97816593886463 98.75 L35.37117903930131 100.83333333333333 L35.764192139737986 96.66666666666666 L36.15720524017467 101.66666666666667 L36.55021834061135 107.08333333333334 L36.943231441048034 114.58333333333333 L37.33624454148471 115 L37.72925764192139 110 L38.122270742358076 111.25 L38.51528384279476 106.25 L38.90829694323144 105 L39.30131004366812 110.83333333333333 L39.6943231441048 113.33333333333334 L40.08733624454148 99.16666666666667 L40.480349344978166 95 L40.87336244541484 83.75 L41.266375545851524 90.41666666666667 L41.65938864628821 87.91666666666666 L42.05240174672489 90.41666666666667 L42.44541484716157 91.66666666666667 L42.83842794759825 92.08333333333333 L43.23144104803493 87.08333333333334 L43.624454148471614 87.91666666666666 L44.0174672489083 76.66666666666666 L44.41048034934497 75.41666666666667 L44.803493449781655 67.08333333333334 L45.19650655021834 70 L45.58951965065502 65.83333333333333 L45.982532751091696 67.91666666666666 L46.37554585152838 67.08333333333334 L46.76855895196506 65.83333333333333 L47.161572052401745 62.08333333333333 L47.55458515283843 55.833333333333336 L47.9475982532751 59.166666666666664 L48.340611353711786 59.166666666666664 L48.73362445414847 58.333333333333336 L49.12663755458515 58.333333333333336 L49.51965065502183 53.333333333333336 L49.91266375545851 54.166666666666664 L50.30567685589519 56.25 L50.698689956331876 56.25 L51.09170305676856 54.583333333333336 L51.484716157205234 54.583333333333336 L51.87772925764192 50.416666666666664 L52.2707423580786 50 L52.66375545851528 47.5 L53.05676855895196 48.33333333333333 L53.44978165938864 48.33333333333333 L53.842794759825324 46.25 L54.23580786026201 42.916666666666664 L54.62882096069869 42.916666666666664 L55.021834061135365 45.833333333333336 L55.41484716157205 47.5 L55.80786026200873 50.416666666666664 L56.200873362445414 45 L56.59388646288209 45 L56.98689956331877 48.75 L57.379912663755455 51.666666666666664 L57.77292576419214 47.91666666666667 L58.165938864628814 48.75 L58.558951965065496 46.25 L58.95196506550218 43.75 L59.34497816593886 42.916666666666664 L59.737991266375545 42.5 L60.13100436681222 51.666666666666664 L60.5240174672489 50 L60.917030567685586 37.08333333333333 L61.31004366812227 34.166666666666664 L61.703056768558945 25.833333333333332 L62.09606986899563 27.5 L62.48908296943231 26.25 L62.88209606986899 30.416666666666668 L63.275109170305676 33.75 L63.66812227074235 35 L64.06113537117903 28.333333333333336 L64.45414847161571 30.833333333333336 L64.8471615720524 32.5 L65.24017467248908 37.5 L65.63318777292577 45 L66.02620087336244 40 L66.41921397379912 34.166666666666664 L66.8122270742358 35 L67.20524017467248 27.5 L67.59825327510917 34.166666666666664 L67.99126637554585 27.916666666666668 L68.38427947598252 30 L68.77729257641921 25.416666666666668 L69.17030567685589 11.666666666666668 L69.56331877729257 11.666666666666668 L69.95633187772926 13.333333333333334 L70.34934497816593 12.083333333333332 L70.74235807860262 17.5 L71.1353711790393 14.583333333333334 L71.52838427947597 15.416666666666668 L71.92139737991266 8.75 L72.31441048034934 0.4166666666666667 L72.70742358078603 0 L73.1004366812227 1.6666666666666667 L73.49344978165938 10.833333333333334 L73.88646288209607 12.5 L74.27947598253274 9.166666666666666 L74.67248908296942 6.25 L75.06550218340611 11.666666666666668 L75.45851528384279 13.333333333333334 L75.85152838427948 21.25 L76.24454148471615 21.666666666666668 L76.63755458515283 20 L77.03056768558952 22.916666666666668 L77.42358078602619 28.333333333333336 L77.81659388646288 13.75 L78.20960698689956 14.583333333333334 L78.60262008733623 19.583333333333336 L78.99563318777292 17.083333333333332 L79.3886462882096 14.166666666666668 L79.78165938864629 5.416666666666667 L80.17467248908297 10.416666666666666 L80.56768558951964 11.25 L80.96069868995633 17.916666666666668 L81.353711790393 18.333333333333332 L81.74672489082968 19.583333333333336 L82.13973799126637 12.916666666666666 L82.53275109170305 11.666666666666668 L82.92576419213974 21.25 L83.31877729257641 18.75 L83.71179039301309 9.583333333333332 L84.10480349344978 17.083333333333332 L84.49781659388645 16.666666666666668 L84.89082969432314 15.833333333333334 L85.28384279475982 21.25 L85.6768558951965 30.416666666666668 L86.06986899563319 38.75 L86.46288209606986 26.25 L86.85589519650654 29.583333333333332 L87.24890829694323 23.333333333333336 L87.6419213973799 23.333333333333336 L88.0349344978166 27.916666666666668 L88.42794759825327 16.666666666666668 L88.82096069868994 25.416666666666668 L89.21397379912663 19.166666666666664 L89.60698689956331 25 L90 30"/><path id="day-1" stroke-linejoin="round" stroke="currentColor" stroke-width="4" fill="none" d="M90 36.25 L90 36.25 L90.39301310043668 32.916666666666664 L90.78602620087337 34.166666666666664 L91.17903930131004 31.25 L91.57205240174673 27.5 L91.9650655021834 34.583333333333336 L92.35807860262008 32.5 L92.75109170305677 26.25 L93.14410480349345 23.333333333333336 L93.53711790393012 21.25 L93.93013100436681 25.833333333333332 L94.32314410480349 25.833333333333332 L94.71615720524018 26.25 L95.10917030567686 25.416666666666668 L95.50218340611353 28.75 L95.89519650655022 31.25 L96.2882096069869 29.583333333333332 L96.68122270742359 24.583333333333336 L97.07423580786026 22.083333333333332 L97.46724890829694 27.083333333333332 L97.86026200873363 33.75 L98.2532751091703 37.5 L98.64628820960698 37.91666666666667 L99.03930131004367 35.416666666666664 L99.43231441048034 37.08333333333333 L99.82532751091703 37.91666666666667 L100.21834061135371 36.666666666666664 L100.6113537117904 37.91666666666667 L101.00436681222708 35 L101.39737991266375 32.916666666666664 L101.79039301310044 31.666666666666668 L102.18340611353712 30 L102.5764192139738 30.416666666666668 L102.96943231441048 30.833333333333336 L103.36244541484716 28.75 L103.75545851528383 32.5 L104.14847161572052 33.333333333333336 L104.5414847161572 36.666666666666664 L104.93449781659389 33.75 L105.32751091703057 32.083333333333336 L105.72052401746726 28.333333333333336 L106.11353711790393 32.916666666666664 L106.5065502183406 30.416666666666668 L106.8995633187773 30.416666666666668 L107.29257641921397 28.333333333333336 L107.68558951965065 27.083333333333332 L108.07860262008734 28.75 L108.47161572052401 27.083333333333332 L108.86462882096069 37.5 L109.25764192139738 36.25 L109.65065502183405 37.5 L110.04366812227074 36.25"/></defs><use xlink:href="#day-0" style="color: #CCCCCC" transform="translate(0, 0)"/><use xlink:href="#day-1" style="color: #FF433D" mask="url(#down-mask)" transform="translate(0, 0)"/><use xlink:href="#day-1" style="color: #1DCC92" mask="url(#up-mask)" transform="translate(0, 0)"/></a>
                </svg>